<svg xmlns="http://www.w3.org/2000/svg" viewBox="0 0 25 22">
  <path fill="#fff" d="M23.49 4.49c-.7.3-1.3.5-2.1.8s-.6 1.29-.6 1.59a5.65 5.65 0 0 1 .1 1.29c0 5.07-3.8 9.15-8.39 9.15s-8.39-4.07-8.39-9.15a9.57 9.57 0 0 1 1.1-4.47c.2-.5.7-.9.5-1.49s-.8-1-1.9-1.89A1.11 1.11 0 0 0 2 .71a15.69 15.69 0 0 0-2 7.46C-.29 15.93 5.7 22 12.5 22S25 15.83 25 8.17a8.55 8.55 0 0 0-.2-2.78 1.08 1.08 0 0 0-1.31-.9z"/>
  <path fill="#f26b7a" d="M17.89 9.77a5.59 5.59 0 0 0-.89-.12c-1.1 0-1.09-.08-1.39.51A3.44 3.44 0 0 1 12 12.25a3.41 3.41 0 0 1-2.7-3.08c-.1-.4-.19-.83-1.3-1-.2 0-.35-.06-.8-.1-1.1-.1-1.1.6-1.1.8a6.73 6.73 0 0 0 5.49 6.47 6.6 6.6 0 0 0 7.09-4.48c.11-.3.32-.86-.79-1.09z"/>
</svg>